<svg xmlns="http://www.w3.org/2000/svg" viewBox="0 0 680.15 1013.63"><defs><style>.cls-1{fill:#6a55b5;}.cls-2{fill:#2080a4;}.cls-3{fill:#1973a5;}.cls-4{fill:#6bffff;}</style></defs><g id="Final"><path id="Mascara_S" data-name="Mascara S" class="cls-1" d="M78.82,518.12C-3.19,647.11,5,736,5,736s195,5.48,279-46.07c5.22-66.11,60.36-66.8,61.24-66.69C341,622.57,132.26,625,78.82,518.12ZM203.74,706.43C144.08,723.93,45.8,725.66,45.8,725.66s12.36-15.78,24.57-25.91c62.42-1.65,142.2-18,142.2-18Z"/><path id="Mascara_I" data-name="Mascara I" class="cls-1" d="M358.15,628.68c-36.13,0-61.28,32.4-61.28,68.53C213,755.72,20.62,748.58,20.62,748.58c16.58,78.62,83.53,213.34,121.92,263.86,90-48.07,281-167.23,281-318.34C423.56,646.81,394.27,628.68,358.15,628.68Z"/><path id="Penacho" class="cls-2" d="M58.16,477S-84.74,213.28,89,122c-17.77,28.38-36.18,65.47-29.84,128.72C60.35,99,298.37-43.91,514.81,16.27,399.18,26.77,371.65,51.83,354.48,74c54.24-13,395.63,50.72,309.33,445.38C649.68,254,394.94,118.73,193.91,205.47-22.31,312.35,58.16,477,58.16,477Z"/><g id="S"><path class="cls-3" d="M340.12,894.49C431.86,804.37,456.35,714.27,439,663c-10.54-31.11-36.15-50-72.1-53.08l-8-.59c-46.35-3.42-94.28-7-138.33-18.19C171.11,578.5,134,557.76,107,527.68c-35.85-40-52.36-94.35-44.17-145.37,9.44-58.74,50.52-110.53,118.8-149.78,40.13-23.07,87.74-35.26,137.69-35.26,73.94,0,146.58,26.27,204.53,74C585.26,321.74,626.71,393.33,644.41,479,523.73,352.57,426.29,333.26,378.13,333.26c-39.38,0-65,11.82-79.62,21.74-19.27,13.1-31,31.13-32.31,49.45-1.84,26.61,18.85,58.19,82.43,67,45.09,6.26,83.81,18.62,115.08,36.75,28,16.2,50.05,37,65.61,61.86,28.5,45.48,34.36,103.89,16.1,160.25-14,43.36-40.18,78.37-79.87,107C432.87,861,391.7,879.74,340.12,894.49Z"/><path class="cls-4" d="M319.35,202.27c72.79,0,144.3,25.86,201.36,72.82C577,321.45,616.35,385.88,635.59,462.85,519.34,346.46,425.41,328.26,378.13,328.26c-32.18,0-60.68,7.82-82.43,22.61-20.54,14-33.12,33.37-34.49,53.24-2,28.86,19.74,63,86.73,72.32,44.44,6.17,82.55,18.32,113.27,36.12,27.26,15.8,48.75,36.05,63.88,60.19C539.54,595.82,548,622,550.23,650.47a204.94,204.94,0,0,1-9.57,78.33,197.85,197.85,0,0,1-30.32,58.47,223.12,223.12,0,0,1-47.72,46.05c-28.19,20.37-62.87,37.09-105.31,50.73,32.51-34.55,57.6-71.13,73.42-107.31,18.92-43.25,23.53-84.23,13-115.38-11.21-33.11-38.35-53.16-76.4-56.46h-.12l-7.94-.59c-46.14-3.4-93.85-6.93-137.47-18-48.43-12.34-84.75-32.59-111-61.9a179.48,179.48,0,0,1-36.47-63.42A164.26,164.26,0,0,1,67.8,383.1c4.3-26.74,15.37-52.16,32.91-75.57,19.84-26.47,47.92-50.25,83.44-70.67,39.38-22.63,86.13-34.59,135.2-34.59m0-10c-50,0-98.63,12-140.18,35.92C18.25,320.69,39.73,460.07,103.31,531s168.23,76.78,263.13,83.84c106.26,9.22,100.2,157.87-44.15,289.62C437.92,875,520.53,823.36,550.18,731.88c32.24-99.51-1.85-237.72-200.86-265.36-125.3-17.4-88.57-128.26,28.81-128.26,69.06,0,166,38.37,274.34,156.73-34-203.37-189.42-302.72-333.12-302.72Z"/></g></g></svg>